<?xml version="1.0" encoding="utf-8"?>
<svg width="288px" height="288px" viewBox="0 0 288 288" version="1.1" xmlns:xlink="http://www.w3.org/1999/xlink" xmlns="http://www.w3.org/2000/svg">
  <desc>Created with Lunacy</desc>
  <defs>
    <linearGradient x1="0.5" y1="0" x2="0.5" y2="1" id="gradient_1">
      <stop offset="0" stop-color="#F863B9" />
      <stop offset="1" stop-color="#FFE874" />
    </linearGradient>
    <linearGradient x1="0.5" y1="0" x2="0.5" y2="1" id="gradient_2">
      <stop offset="0" stop-color="#FFE259" />
      <stop offset="1" stop-color="#FFA751" />
    </linearGradient>
    <filter filterUnits="userSpaceOnUse" color-interpolation-filters="sRGB" id="filter_1">
      <feFlood flood-opacity="0" result="BackgroundImageFix" />
      <feColorMatrix in="SourceAlpha" type="matrix" values="0 0 0 0 0 0 0 0 0 0 0 0 0 0 0 0 0 0 127 0" />
      <feOffset dx="0" dy="3" />
      <feGaussianBlur stdDeviation="3" />
      <feColorMatrix type="matrix" values="0 0 0 0 0 0 0 0 0 0 0 0 0 0 0 0 0 0 0.2 0" />
      <feBlend mode="normal" in2="BackgroundImageFix" result="effect0_dropShadow" />
      <feBlend mode="normal" in="SourceGraphic" in2="effect0_dropShadow" result="shape" />
    </filter>
    <filter filterUnits="userSpaceOnUse" color-interpolation-filters="sRGB" id="filter_2">
      <feFlood flood-opacity="0" result="BackgroundImageFix" />
      <feColorMatrix in="SourceAlpha" type="matrix" values="0 0 0 0 0 0 0 0 0 0 0 0 0 0 0 0 0 0 127 0" />
      <feOffset dx="0" dy="8" />
      <feGaussianBlur stdDeviation="4" />
      <feColorMatrix type="matrix" values="0 0 0 0 0 0 0 0 0 0 0 0 0 0 0 0 0 0 0.2 0" />
      <feBlend mode="normal" in2="BackgroundImageFix" result="effect0_dropShadow" />
      <feBlend mode="normal" in="SourceGraphic" in2="effect0_dropShadow" result="shape" />
    </filter>
    <filter filterUnits="userSpaceOnUse" color-interpolation-filters="sRGB" id="filter_3">
      <feFlood flood-opacity="0" result="BackgroundImageFix" />
      <feColorMatrix in="SourceAlpha" type="matrix" values="0 0 0 0 0 0 0 0 0 0 0 0 0 0 0 0 0 0 127 0" />
      <feOffset dx="0" dy="0" />
      <feGaussianBlur stdDeviation="2" />
      <feColorMatrix type="matrix" values="0 0 0 0 0 0 0 0 0 0 0 0 0 0 0 0 0 0 0.26666668 0" />
      <feBlend mode="normal" in2="BackgroundImageFix" result="effect0_dropShadow" />
      <feBlend mode="normal" in="SourceGraphic" in2="effect0_dropShadow" result="shape" />
    </filter>
    <path d="M0 0L288 0L288 288L0 288L0 0Z" id="path_1" />
    <clipPath id="mask_1">
      <use xlink:href="#path_1" />
    </clipPath>
  </defs>
  <g id="upgrade">
    <path d="M0 0L288 0L288 288L0 288L0 0Z" id="Background" fill="none" fill-rule="evenodd" stroke="none" />
    <g clip-path="url(#mask_1)">
      <path d="M99 0C44.3238 8.58307e-06 0 44.3238 0 99C8.58307e-06 153.676 44.3238 198 99 198C153.676 198 198 153.676 198 99C198 44.3238 153.676 8.58307e-06 99 8.58307e-06L99 0Z" transform="translate(44.711853 46.017)" id="Shape" fill="#FAEFDE" fill-rule="evenodd" stroke="none" />
      <path d="M155.862 9L6.4395 158.423C3.9375 153.261 1.791 147.893 0 142.362L142.362 0L155.862 9ZM19.8 190.066L196.366 13.5L169.366 13.5L8.35648 174.506C11.772 179.991 15.606 185.188 19.8 190.066ZM28.5705 199.292C40.392 210.533 54.3825 219.496 69.867 225.495L223.362 72L223.362 43.083C218.601 35.1765 212.976 27.855 206.653 21.2085L28.5705 199.292Z" transform="translate(32.849915 41.517)" id="Shape" fill="#FFF7F0" fill-rule="evenodd" stroke="none" />
      <path d="M0 126C0 56.412 56.412 0 126 0C195.588 0 252 56.412 252 126C252 195.588 195.588 252 126 252C56.412 252 0 195.588 0 126ZM27 126C27 180.675 71.325 225 126 225C180.68 225 225 180.675 225 126C225 101.156 215.847 78.444 200.727 61.0605C199.624 59.7915 198.49 58.554 197.329 57.348C196.335 56.313 195.322 55.305 194.283 54.315C176.517 37.3905 152.474 27 126 27C71.325 27 27 71.325 27 126Z" transform="translate(17.711853 19.016998)" id="Shape" fill="#51C240" fill-rule="evenodd" stroke="none" />
      <path d="M40.5 130.5L40.5 49.5L18 72L0 54L54 0L108 54L90 72L67.5 49.5L67.5 130.5L40.5 130.5Z" transform="translate(90 72)" id="Shape" fill="url(#gradient_1)" fill-rule="evenodd" stroke="none" filter="url(#filter_1)" />
      <path d="M124.488 99C69.8134 99 25.4884 54.675 25.4884 0L18.0139 0C6.80444 0 -1.61056 10.125 0.26144 21.177C10.3279 80.6805 62.1184 126 124.488 126C186.858 126 238.649 80.6805 248.715 21.177C250.587 10.125 242.172 0 230.963 0L223.488 0C223.488 54.675 179.163 99 124.488 99L124.488 99Z" transform="translate(19.511475 144)" id="Shape" fill="#EFD8BE" fill-rule="evenodd" stroke="none" />
      <path d="M2.92489 8.71405C6.1289 9.91555 9.31038 11.306 12.3704 12.8495C13.0229 13.178 13.7114 13.331 14.3954 13.331C16.0424 13.331 17.6264 12.4265 18.4184 10.8605C19.5389 8.64205 18.6479 5.93305 16.4294 4.81705C13.0724 3.12504 9.58939 1.59955 6.07939 0.285546C3.75739 -0.582953 1.16089 0.596047 0.287893 2.92255C-0.585108 5.24905 0.59388 7.84105 2.92489 8.71405L2.92489 8.71405Z" transform="translate(174.15472 46.734955)" id="Shape" fill="#8D6C9F" fill-rule="evenodd" stroke="none" />
      <path d="M0 130.5C0 58.5405 58.5405 0 130.5 0C202.46 0 261 58.5405 261 130.5C261 202.46 202.46 261 130.5 261C58.5405 261 0 202.459 0 130.5ZM9 130.5C9 197.496 63.504 252 130.5 252C197.496 252 252 197.496 252 130.5C252 63.504 197.496 9 130.5 9C63.504 9 9 63.504 9 130.5Z" transform="translate(13.5 13.5)" id="Shape" fill="url(#gradient_1)" fill-rule="evenodd" stroke="none" filter="url(#filter_1)" />
      <path d="M9 103.492C9 78.2512 18.8325 54.5182 36.6795 36.6712C58.0455 15.3007 88.6275 5.39167 118.521 10.1842C121 10.5847 123.287 8.90617 123.678 6.45367C124.07 4.00117 122.4 1.68817 119.948 1.29667C87.219 -3.94583 53.7165 6.90367 30.321 30.3037C10.7685 49.8562 0 75.8437 0 103.492C0 131.14 10.7685 157.127 30.3165 176.675C31.194 177.553 32.346 177.994 33.498 177.994C34.65 177.994 35.802 177.553 36.6795 176.675C38.439 174.916 38.439 172.072 36.6795 170.312C18.8325 152.465 9 128.732 9 103.492ZM167.265 21.9562C170.541 24.5212 173.709 27.3337 176.684 30.3082C196.232 49.8562 207 75.8437 207 103.492C207 131.14 196.232 157.127 176.684 176.675C175.806 177.553 174.654 177.994 173.502 177.994C172.35 177.994 171.198 177.553 170.321 176.675C168.561 174.916 168.561 172.072 170.321 170.312C188.168 152.465 198 128.732 198 103.492C198 78.2512 188.168 54.5182 170.321 36.6712C167.603 33.9532 164.705 31.3837 161.712 29.0392C159.755 27.5047 159.413 24.6787 160.947 22.7212C162.477 20.7592 165.312 20.4262 167.265 21.9562ZM55.7281 179.483C56.9701 177.332 59.7196 176.594 61.8751 177.836C64.0306 179.083 64.7641 181.837 63.5221 183.983L59.0221 191.777C58.1896 193.222 56.6776 194.027 55.1206 194.027C54.3601 194.027 53.5816 193.834 52.8751 193.424C50.7241 192.182 49.9861 189.428 51.2281 187.277L55.7281 179.483ZM151.272 179.488C150.03 177.332 147.271 176.594 145.125 177.841C142.969 179.083 142.236 181.837 143.478 183.988L147.978 191.782C148.815 193.226 150.322 194.032 151.879 194.032C152.64 194.032 153.418 193.838 154.125 193.429C156.28 192.187 157.014 189.433 155.772 187.282L151.272 179.488ZM76.4416 189.338C77.0806 186.935 79.5421 185.509 81.954 186.157C84.3526 186.796 85.7791 189.266 85.1311 191.669L82.8001 200.363C82.2646 202.375 80.4466 203.702 78.4576 203.702C78.0751 203.702 77.6836 203.648 77.2921 203.545C74.8935 202.901 73.4671 200.435 74.1105 198.032L76.4416 189.338ZM130.559 189.338C129.915 186.935 127.463 185.509 125.046 186.157C122.648 186.8 121.221 189.266 121.865 191.669L124.196 200.363C124.736 202.375 126.549 203.702 128.538 203.702C128.921 203.702 129.312 203.653 129.704 203.545C132.102 202.901 133.529 200.435 132.885 198.032L130.559 189.338ZM103.5 188.992C101.016 188.992 99 191.008 99 193.492L99 202.492C99 204.976 101.016 206.992 103.5 206.992C105.984 206.992 108 204.976 108 202.492L108 193.492C108 191.008 105.984 188.992 103.5 188.992Z" transform="translate(40.5 40.5083)" id="Shape" fill="url(#gradient_2)" fill-rule="evenodd" stroke="none" filter="url(#filter_2)" />
      <path d="M55.3196 1.31963C57.0791 -0.439874 59.9231 -0.439874 61.6826 1.31963L115.683 55.3196C117.442 57.0791 117.442 59.9231 115.683 61.6826L97.6826 79.6826C95.9231 81.4421 93.0791 81.4421 91.3196 79.6826L76.5011 64.8641L76.5011 135.001C76.5011 137.485 74.4851 139.501 72.0011 139.501L45.0011 139.501C42.5171 139.501 40.5011 137.485 40.5011 135.001L40.5011 64.8641L25.6826 79.6826C23.9231 81.4421 21.0791 81.4421 19.3196 79.6826L1.31963 61.6826C-0.439874 59.9231 -0.439874 57.0791 1.31963 55.3196L55.3196 1.31963ZM75.1826 50.8196L94.5011 70.1381L106.138 58.5011L58.5011 10.8641L10.8641 58.5011L22.5011 70.1381L41.8196 50.8196C43.1066 49.5281 45.0371 49.1411 46.7246 49.8431C48.4031 50.5406 49.5011 52.1831 49.5011 54.0011L49.5011 130.501L67.5011 130.501L67.5011 54.0011C67.5011 52.1831 68.5991 50.5406 70.2776 49.8431C71.9606 49.1411 73.8911 49.5281 75.1826 50.8196Z" transform="translate(85.4989 67.4989)" id="Shape" fill="#FFFFFF" fill-rule="evenodd" stroke="none" filter="url(#filter_3)" />
    </g>
  </g>
</svg>